<svg xmlns="http://www.w3.org/2000/svg" xmlns:xlink="http://www.w3.org/1999/xlink" version="1.1" x="0px" y="0px" viewBox="0 0 100 100" enable-background="new 0 0 100 100" xml:space="preserve"><path d="M54.5,63.6V42.1h-9.1v21.5H54.5z M40.4,63.6V42.1h-9.1v21.5H40.4z M35.5,33.1h29l-14.6-8L35.5,33.1z M50,5  C25.1,5,5,25.2,5,50c0,24.9,20.1,45,45,45c24.9,0,45-20.1,45-45C95,25.2,74.9,5,50,5L50,5z M19.5,71.4v-4.6h3.1v-3.2h3.7V38.9h-3.7  v-5.8L50,17.4l27.5,15.7v5.8h-3.7v24.8h3.7v3.2h3.1v4.6H19.5z M68.7,63.6V42.1h-9.1v21.5H68.7z"></path></svg>